<svg id="Layer_1" data-name="Layer 1" xmlns="http://www.w3.org/2000/svg" viewBox="0 0 439.44 369.44"><defs><style>.cls-1{fill:#a1edff;}.cls-1,.cls-2,.cls-3,.cls-4,.cls-5{opacity:0.51;}.cls-2{fill:#e0e0ad;}.cls-3{fill:#ffd1b6;}.cls-4{fill:#e0a6e0;}.cls-5{fill:#a6d5e0;}.cls-6{font-size:151.8px;font-family:Allura;}</style></defs><title>Untitled-2</title><path class="cls-1" d="M503.88,329.11c38.63,21.72,44.91,43.75,35.16,61.09s-31.84,23.43-70.47,1.71S361.32,290.3,361.32,290.3,465.25,307.4,503.88,329.11Z" transform="translate(-286.54 -201.98)"/><path class="cls-2" d="M511.29,328.73c-37.22,24.05-42.13,46.43-31.33,63.14s33.22,21.42,70.44-2.63,100.79-108,100.79-108S548.51,304.68,511.29,328.73Z" transform="translate(-286.54 -201.98)"/><path class="cls-3" d="M544.79,345.27c0,44.31-16.13,60.59-36,60.59s-36-16.27-36-60.59,36-143.28,36-143.28S544.79,301,544.79,345.27Z" transform="translate(-286.54 -201.98)"/><path class="cls-4" d="M493.19,330.92C470.51,369,476,391.22,493.13,401.4s39.28,4.45,62-33.62,42.37-141.54,42.37-141.54S515.86,292.84,493.19,330.92Z" transform="translate(-286.54 -201.98)"/><path class="cls-5" d="M521.78,330.92c22.68,38.07,17.15,60.31.05,70.49s-39.28,4.45-62-33.62-42.37-141.54-42.37-141.54S499.11,292.84,521.78,330.92Z" transform="translate(-286.54 -201.98)"/><text class="cls-6" transform="translate(0 301.13)">Serenity</text></svg>
