<svg id="Layer_1" data-name="Layer 1" xmlns="http://www.w3.org/2000/svg" viewBox="0 0 852.88 221.09"><defs><style>.cls-1{font-size:184.48px;fill:#333;font-family:Allura;}.cls-2{fill:#a1edff;}.cls-2,.cls-3,.cls-4,.cls-5,.cls-6{opacity:0.51;}.cls-3{fill:#e0e0ad;}.cls-4{fill:#ffd1b6;}.cls-5{fill:#e0a6e0;}.cls-6{fill:#a6d5e0;}</style></defs><title>Untitled-1</title><text class="cls-1" transform="translate(318.84 138.08)">Serenity</text><path class="cls-2" d="M221.39,391.16c32.67,18.37,38,37,29.74,51.67s-26.93,19.82-59.6,1.45-90.71-85.95-90.71-85.95S188.72,372.79,221.39,391.16Z" transform="translate(-100.82 -280.07)"/><path class="cls-3" d="M227.66,390.84c-31.48,20.34-35.64,39.27-26.5,53.4s28.1,18.12,59.58-2.22S346,350.65,346,350.65,259.14,370.49,227.66,390.84Z" transform="translate(-100.82 -280.07)"/><path class="cls-4" d="M256,404.82c0,37.48-13.64,51.24-30.47,51.24s-30.47-13.76-30.47-51.24,30.47-121.19,30.47-121.19S256,367.34,256,404.82Z" transform="translate(-100.82 -280.07)"/><path class="cls-5" d="M212.35,392.68c-19.18,32.2-14.5,51,0,59.62s33.22,3.77,52.4-28.44,35.83-119.71,35.83-119.71S231.53,360.48,212.35,392.68Z" transform="translate(-100.82 -280.07)"/><path class="cls-6" d="M236.54,392.68c19.18,32.2,14.5,51,0,59.62s-33.22,3.77-52.4-28.44-35.83-119.71-35.83-119.71S217.36,360.48,236.54,392.68Z" transform="translate(-100.82 -280.07)"/></svg>
